<mxfile host="app.diagrams.net" modified="2022-07-14T03:20:35.419Z" agent="5.0 (Windows NT 10.0; Win64; x64) AppleWebKit/537.36 (KHTML, like Gecko) Chrome/103.0.5060.53 Safari/537.36 Edg/103.0.1264.37" etag="lT3RlO8Z4g_eeshJ92Rw" version="20.1.1" type="github">
  <diagram name="sequence" id="13e1069c-82ec-6db2-03f1-153e76fe0fe0">
    <mxGraphModel dx="1422" dy="914" grid="1" gridSize="10" guides="1" tooltips="1" connect="1" arrows="1" fold="1" page="1" pageScale="1" pageWidth="1100" pageHeight="850" background="none" math="0" shadow="0">
      <root>
        <mxCell id="0" />
        <mxCell id="1" parent="0" />
        <mxCell id="hYCwRgtjoV_y1NuRYDU3-8" value="服务端" style="shape=umlFrame;whiteSpace=wrap;html=1;fontSize=14;" parent="1" vertex="1">
          <mxGeometry x="640" y="20" width="380" height="900" as="geometry" />
        </mxCell>
        <mxCell id="hYCwRgtjoV_y1NuRYDU3-7" value="客户端" style="shape=umlFrame;whiteSpace=wrap;html=1;fontSize=14;" parent="1" vertex="1">
          <mxGeometry x="30" y="20" width="560" height="900" as="geometry" />
        </mxCell>
        <mxCell id="7baba1c4bc27f4b0-2" value="好友/群组组件" style="shape=umlLifeline;perimeter=lifelinePerimeter;whiteSpace=wrap;html=1;container=1;collapsible=0;recursiveResize=0;outlineConnect=0;rounded=1;shadow=0;comic=0;labelBackgroundColor=none;strokeWidth=1;fontFamily=Verdana;fontSize=14;align=center;" parent="1" vertex="1">
          <mxGeometry x="460" y="90" width="100" height="860" as="geometry" />
        </mxCell>
        <mxCell id="hYCwRgtjoV_y1NuRYDU3-3" value="" style="html=1;points=[];perimeter=orthogonalPerimeter;fontSize=14;" parent="7baba1c4bc27f4b0-2" vertex="1">
          <mxGeometry x="45" y="200" width="10" height="80" as="geometry" />
        </mxCell>
        <mxCell id="7baba1c4bc27f4b0-3" value="个人通讯录-服务端" style="shape=umlLifeline;perimeter=lifelinePerimeter;whiteSpace=wrap;html=1;container=1;collapsible=0;recursiveResize=0;outlineConnect=0;rounded=1;shadow=0;comic=0;labelBackgroundColor=none;strokeWidth=1;fontFamily=Verdana;fontSize=14;align=center;" parent="1" vertex="1">
          <mxGeometry x="675" y="90" width="100" height="860" as="geometry" />
        </mxCell>
        <mxCell id="7baba1c4bc27f4b0-4" value="UC" style="shape=umlLifeline;perimeter=lifelinePerimeter;whiteSpace=wrap;html=1;container=1;collapsible=0;recursiveResize=0;outlineConnect=0;rounded=1;shadow=0;comic=0;labelBackgroundColor=none;strokeWidth=1;fontFamily=Verdana;fontSize=14;align=center;" parent="1" vertex="1">
          <mxGeometry x="886" y="90" width="100" height="860" as="geometry" />
        </mxCell>
        <mxCell id="hYCwRgtjoV_y1NuRYDU3-20" value="" style="html=1;points=[];perimeter=orthogonalPerimeter;fontSize=14;" parent="7baba1c4bc27f4b0-4" vertex="1">
          <mxGeometry x="45" y="640" width="10" height="80" as="geometry" />
        </mxCell>
        <mxCell id="hYCwRgtjoV_y1NuRYDU3-23" value="" style="html=1;points=[];perimeter=orthogonalPerimeter;fontSize=14;" parent="7baba1c4bc27f4b0-4" vertex="1">
          <mxGeometry x="45" y="430" width="10" height="80" as="geometry" />
        </mxCell>
        <mxCell id="7baba1c4bc27f4b0-8" value="个人通讯录-客户端" style="shape=umlLifeline;perimeter=lifelinePerimeter;whiteSpace=wrap;html=1;container=1;collapsible=0;recursiveResize=0;outlineConnect=0;rounded=1;shadow=0;comic=0;labelBackgroundColor=none;strokeWidth=1;fontFamily=Verdana;fontSize=14;align=center;" parent="1" vertex="1">
          <mxGeometry x="260" y="90" width="100" height="860" as="geometry" />
        </mxCell>
        <mxCell id="hYCwRgtjoV_y1NuRYDU3-13" value="" style="html=1;points=[];perimeter=orthogonalPerimeter;fontSize=14;" parent="7baba1c4bc27f4b0-8" vertex="1">
          <mxGeometry x="45" y="90" width="10" height="80" as="geometry" />
        </mxCell>
        <mxCell id="hYCwRgtjoV_y1NuRYDU3-4" value="应用工厂跳转" style="html=1;verticalAlign=bottom;endArrow=block;entryX=0;entryY=0;rounded=0;fontSize=14;" parent="1" edge="1">
          <mxGeometry relative="1" as="geometry">
            <mxPoint x="309.5" y="291.0000000000001" as="sourcePoint" />
            <mxPoint x="505" y="291.0000000000001" as="targetPoint" />
          </mxGeometry>
        </mxCell>
        <mxCell id="hYCwRgtjoV_y1NuRYDU3-11" value="" style="shape=umlLifeline;participant=umlActor;perimeter=lifelinePerimeter;whiteSpace=wrap;html=1;container=1;collapsible=0;recursiveResize=0;verticalAlign=top;spacingTop=36;outlineConnect=0;fontSize=14;" parent="1" vertex="1">
          <mxGeometry x="110" y="100" width="20" height="850" as="geometry" />
        </mxCell>
        <mxCell id="hYCwRgtjoV_y1NuRYDU3-14" value="打开个人通讯录（携带UC认证信息）" style="html=1;verticalAlign=bottom;endArrow=block;entryX=0;entryY=0;rounded=0;fontSize=14;" parent="1" source="hYCwRgtjoV_y1NuRYDU3-11" target="hYCwRgtjoV_y1NuRYDU3-13" edge="1">
          <mxGeometry relative="1" as="geometry">
            <mxPoint x="235" y="180" as="sourcePoint" />
          </mxGeometry>
        </mxCell>
        <mxCell id="hYCwRgtjoV_y1NuRYDU3-17" value="" style="html=1;points=[];perimeter=orthogonalPerimeter;fontSize=14;" parent="1" vertex="1">
          <mxGeometry x="720" y="450" width="10" height="430" as="geometry" />
        </mxCell>
        <mxCell id="hYCwRgtjoV_y1NuRYDU3-18" value="请求人员列表" style="html=1;verticalAlign=bottom;endArrow=block;entryX=0;entryY=0;rounded=0;fontSize=14;" parent="1" source="7baba1c4bc27f4b0-8" target="hYCwRgtjoV_y1NuRYDU3-17" edge="1">
          <mxGeometry relative="1" as="geometry">
            <mxPoint x="650" y="450" as="sourcePoint" />
          </mxGeometry>
        </mxCell>
        <mxCell id="hYCwRgtjoV_y1NuRYDU3-19" value="返回人员列表&amp;nbsp;" style="html=1;verticalAlign=bottom;endArrow=open;dashed=1;endSize=8;exitX=0;exitY=0.95;rounded=0;fontSize=14;" parent="1" source="hYCwRgtjoV_y1NuRYDU3-17" target="7baba1c4bc27f4b0-8" edge="1">
          <mxGeometry relative="1" as="geometry">
            <mxPoint x="650" y="526" as="targetPoint" />
          </mxGeometry>
        </mxCell>
        <mxCell id="hYCwRgtjoV_y1NuRYDU3-21" value="请求人员信息" style="html=1;verticalAlign=bottom;endArrow=block;entryX=0;entryY=0;rounded=0;fontSize=14;" parent="1" source="hYCwRgtjoV_y1NuRYDU3-17" target="hYCwRgtjoV_y1NuRYDU3-20" edge="1">
          <mxGeometry relative="1" as="geometry">
            <mxPoint x="861" y="500" as="sourcePoint" />
          </mxGeometry>
        </mxCell>
        <mxCell id="hYCwRgtjoV_y1NuRYDU3-22" value="返回人员信息" style="html=1;verticalAlign=bottom;endArrow=open;dashed=1;endSize=8;exitX=0;exitY=0.95;rounded=0;fontSize=14;" parent="1" source="hYCwRgtjoV_y1NuRYDU3-20" target="hYCwRgtjoV_y1NuRYDU3-17" edge="1">
          <mxGeometry relative="1" as="geometry">
            <mxPoint x="861" y="576" as="targetPoint" />
          </mxGeometry>
        </mxCell>
        <mxCell id="hYCwRgtjoV_y1NuRYDU3-24" value="校验UC认证信息" style="html=1;verticalAlign=bottom;endArrow=block;entryX=0;entryY=0;rounded=0;fontSize=14;" parent="1" source="hYCwRgtjoV_y1NuRYDU3-17" target="hYCwRgtjoV_y1NuRYDU3-23" edge="1">
          <mxGeometry relative="1" as="geometry">
            <mxPoint x="861" y="520" as="sourcePoint" />
          </mxGeometry>
        </mxCell>
        <mxCell id="hYCwRgtjoV_y1NuRYDU3-25" value="校验结果" style="html=1;verticalAlign=bottom;endArrow=open;dashed=1;endSize=8;exitX=0;exitY=0.95;rounded=0;fontSize=14;" parent="1" source="hYCwRgtjoV_y1NuRYDU3-23" target="hYCwRgtjoV_y1NuRYDU3-17" edge="1">
          <mxGeometry relative="1" as="geometry">
            <mxPoint x="861" y="596" as="targetPoint" />
          </mxGeometry>
        </mxCell>
      </root>
    </mxGraphModel>
  </diagram>
</mxfile>
